<?xml version="1.0" standalone="no"?>
<!DOCTYPE svg PUBLIC "-//W3C//DTD SVG 20010904//EN"
 "http://www.w3.org/TR/2001/REC-SVG-20010904/DTD/svg10.dtd">
<svg version="1.0" xmlns="http://www.w3.org/2000/svg"
 width="67.000000pt" height="67.000000pt" viewBox="0 0 67.000000 67.000000"
 preserveAspectRatio="xMidYMid meet">

<g transform="translate(0.000000,67.000000) scale(0.100000,-0.100000)"
fill="#000000" stroke="none">
<path d="M16 654 c-14 -13 -16 -56 -16 -319 0 -263 2 -306 16 -319 13 -14 56
-16 319 -16 263 0 306 2 319 16 14 13 16 48 16 224 0 122 -4 220 -11 237 -16
44 -148 172 -189 183 -19 6 -126 10 -237 10 -170 0 -204 -2 -217 -16z m455
-21 c7 -7 15 -45 18 -85 l6 -73 67 -5 c36 -3 70 -9 75 -13 4 -5 9 -98 11 -207
3 -172 1 -200 -13 -214 -14 -14 -51 -16 -300 -16 -244 0 -286 2 -299 16 -14
13 -16 55 -16 299 0 249 2 286 16 300 14 14 43 16 220 13 144 -2 207 -7 215
-15z"/>
<path d="M200 335 l0 -135 25 0 c22 0 24 4 27 58 l3 57 80 0 80 0 3 -57 c3
-54 5 -58 27 -58 l25 0 0 135 0 135 -25 0 c-24 0 -25 -3 -25 -60 l0 -60 -85 0
-85 0 0 60 c0 57 -1 60 -25 60 l-25 0 0 -135z"/>
</g>
</svg>
